<mxfile host="app.diagrams.net" agent="Mozilla/5.0 (Windows NT 10.0; Win64; x64) AppleWebKit/537.36 (KHTML, like Gecko) Chrome/127.0.0.0 Safari/537.36 OPR/113.0.0.0 (Edition std-1)" version="24.7.17">
  <diagram name="Strona-1" id="lgIlSPZfyDQ2gxR7ErZ6">
    <mxGraphModel dx="1158" dy="1829" grid="1" gridSize="10" guides="1" tooltips="1" connect="1" arrows="1" fold="1" page="1" pageScale="1" pageWidth="827" pageHeight="1169" math="0" shadow="0">
      <root>
        <mxCell id="0" />
        <mxCell id="1" parent="0" />
        <mxCell id="yUk9mNaL82bYp9puLYHr-1" value="Aircraft" style="rounded=0;whiteSpace=wrap;html=1;" vertex="1" parent="1">
          <mxGeometry x="260" y="180" width="100" height="50" as="geometry" />
        </mxCell>
        <mxCell id="yUk9mNaL82bYp9puLYHr-7" style="rounded=0;orthogonalLoop=1;jettySize=auto;html=1;entryX=0;entryY=0.5;entryDx=0;entryDy=0;endArrow=none;endFill=0;" edge="1" parent="1" source="yUk9mNaL82bYp9puLYHr-2" target="yUk9mNaL82bYp9puLYHr-1">
          <mxGeometry relative="1" as="geometry" />
        </mxCell>
        <mxCell id="yUk9mNaL82bYp9puLYHr-2" value="Type designator" style="ellipse;whiteSpace=wrap;html=1;" vertex="1" parent="1">
          <mxGeometry x="110" y="180" width="90" height="65" as="geometry" />
        </mxCell>
        <mxCell id="yUk9mNaL82bYp9puLYHr-8" style="rounded=0;orthogonalLoop=1;jettySize=auto;html=1;entryX=0;entryY=0;entryDx=0;entryDy=0;endArrow=none;endFill=0;" edge="1" parent="1" source="yUk9mNaL82bYp9puLYHr-4" target="yUk9mNaL82bYp9puLYHr-1">
          <mxGeometry relative="1" as="geometry" />
        </mxCell>
        <mxCell id="yUk9mNaL82bYp9puLYHr-4" value="Construction Year" style="ellipse;whiteSpace=wrap;html=1;" vertex="1" parent="1">
          <mxGeometry x="170" y="80" width="90" height="65" as="geometry" />
        </mxCell>
        <mxCell id="yUk9mNaL82bYp9puLYHr-10" style="rounded=0;orthogonalLoop=1;jettySize=auto;html=1;entryX=0;entryY=1;entryDx=0;entryDy=0;endArrow=none;endFill=0;" edge="1" parent="1" source="yUk9mNaL82bYp9puLYHr-5" target="yUk9mNaL82bYp9puLYHr-1">
          <mxGeometry relative="1" as="geometry" />
        </mxCell>
        <mxCell id="yUk9mNaL82bYp9puLYHr-5" value="Number of Passengers" style="ellipse;whiteSpace=wrap;html=1;" vertex="1" parent="1">
          <mxGeometry x="170" y="245" width="90" height="65" as="geometry" />
        </mxCell>
        <mxCell id="yUk9mNaL82bYp9puLYHr-9" style="rounded=0;orthogonalLoop=1;jettySize=auto;html=1;entryX=0.5;entryY=0;entryDx=0;entryDy=0;endArrow=none;endFill=0;" edge="1" parent="1" source="yUk9mNaL82bYp9puLYHr-6" target="yUk9mNaL82bYp9puLYHr-1">
          <mxGeometry relative="1" as="geometry" />
        </mxCell>
        <mxCell id="yUk9mNaL82bYp9puLYHr-6" value="&lt;u&gt;Unique Number&lt;/u&gt;" style="ellipse;whiteSpace=wrap;html=1;" vertex="1" parent="1">
          <mxGeometry x="300" y="60" width="90" height="65" as="geometry" />
        </mxCell>
        <mxCell id="yUk9mNaL82bYp9puLYHr-11" value="Client" style="rounded=0;whiteSpace=wrap;html=1;" vertex="1" parent="1">
          <mxGeometry x="740" y="192.5" width="100" height="50" as="geometry" />
        </mxCell>
        <mxCell id="yUk9mNaL82bYp9puLYHr-18" style="rounded=0;orthogonalLoop=1;jettySize=auto;html=1;entryX=0.5;entryY=0;entryDx=0;entryDy=0;endArrow=none;endFill=0;" edge="1" parent="1" source="yUk9mNaL82bYp9puLYHr-12" target="yUk9mNaL82bYp9puLYHr-11">
          <mxGeometry relative="1" as="geometry" />
        </mxCell>
        <mxCell id="yUk9mNaL82bYp9puLYHr-12" value="Name" style="ellipse;whiteSpace=wrap;html=1;" vertex="1" parent="1">
          <mxGeometry x="750" y="70" width="90" height="65" as="geometry" />
        </mxCell>
        <mxCell id="yUk9mNaL82bYp9puLYHr-17" style="rounded=0;orthogonalLoop=1;jettySize=auto;html=1;entryX=1;entryY=0;entryDx=0;entryDy=0;endArrow=none;endFill=0;" edge="1" parent="1" source="yUk9mNaL82bYp9puLYHr-13" target="yUk9mNaL82bYp9puLYHr-11">
          <mxGeometry relative="1" as="geometry" />
        </mxCell>
        <mxCell id="yUk9mNaL82bYp9puLYHr-13" value="Mobile Phone number" style="ellipse;whiteSpace=wrap;html=1;" vertex="1" parent="1">
          <mxGeometry x="870" y="100" width="90" height="65" as="geometry" />
        </mxCell>
        <mxCell id="yUk9mNaL82bYp9puLYHr-16" style="rounded=0;orthogonalLoop=1;jettySize=auto;html=1;entryX=1;entryY=0.5;entryDx=0;entryDy=0;endArrow=none;endFill=0;" edge="1" parent="1" source="yUk9mNaL82bYp9puLYHr-14" target="yUk9mNaL82bYp9puLYHr-11">
          <mxGeometry relative="1" as="geometry" />
        </mxCell>
        <mxCell id="yUk9mNaL82bYp9puLYHr-14" value="&lt;u&gt;Identifier&lt;/u&gt;" style="ellipse;whiteSpace=wrap;html=1;" vertex="1" parent="1">
          <mxGeometry x="890" y="215" width="90" height="65" as="geometry" />
        </mxCell>
        <mxCell id="yUk9mNaL82bYp9puLYHr-22" value="Flight" style="rounded=0;whiteSpace=wrap;html=1;" vertex="1" parent="1">
          <mxGeometry x="260" y="400" width="100" height="50" as="geometry" />
        </mxCell>
        <mxCell id="yUk9mNaL82bYp9puLYHr-35" style="rounded=0;orthogonalLoop=1;jettySize=auto;html=1;entryX=0;entryY=0.5;entryDx=0;entryDy=0;endArrow=none;endFill=0;" edge="1" parent="1" source="yUk9mNaL82bYp9puLYHr-23" target="yUk9mNaL82bYp9puLYHr-22">
          <mxGeometry relative="1" as="geometry" />
        </mxCell>
        <mxCell id="yUk9mNaL82bYp9puLYHr-23" value="Destination" style="ellipse;whiteSpace=wrap;html=1;" vertex="1" parent="1">
          <mxGeometry x="120" y="370" width="90" height="65" as="geometry" />
        </mxCell>
        <mxCell id="yUk9mNaL82bYp9puLYHr-37" style="rounded=0;orthogonalLoop=1;jettySize=auto;html=1;entryX=0;entryY=1;entryDx=0;entryDy=0;endArrow=none;endFill=0;" edge="1" parent="1" source="yUk9mNaL82bYp9puLYHr-28" target="yUk9mNaL82bYp9puLYHr-22">
          <mxGeometry relative="1" as="geometry" />
        </mxCell>
        <mxCell id="yUk9mNaL82bYp9puLYHr-28" value="Arrival" style="ellipse;whiteSpace=wrap;html=1;" vertex="1" parent="1">
          <mxGeometry x="150" y="540" width="90" height="65" as="geometry" />
        </mxCell>
        <mxCell id="yUk9mNaL82bYp9puLYHr-38" style="rounded=0;orthogonalLoop=1;jettySize=auto;html=1;entryX=0;entryY=0.75;entryDx=0;entryDy=0;endArrow=none;endFill=0;" edge="1" parent="1" source="yUk9mNaL82bYp9puLYHr-29" target="yUk9mNaL82bYp9puLYHr-22">
          <mxGeometry relative="1" as="geometry" />
        </mxCell>
        <mxCell id="yUk9mNaL82bYp9puLYHr-29" value="Departure" style="ellipse;whiteSpace=wrap;html=1;" vertex="1" parent="1">
          <mxGeometry x="60" y="460" width="90" height="65" as="geometry" />
        </mxCell>
        <mxCell id="yUk9mNaL82bYp9puLYHr-33" style="rounded=0;orthogonalLoop=1;jettySize=auto;html=1;entryX=1;entryY=1;entryDx=0;entryDy=0;endArrow=none;endFill=0;" edge="1" parent="1" source="yUk9mNaL82bYp9puLYHr-30" target="yUk9mNaL82bYp9puLYHr-22">
          <mxGeometry relative="1" as="geometry" />
        </mxCell>
        <mxCell id="yUk9mNaL82bYp9puLYHr-30" value="Flight Time" style="ellipse;whiteSpace=wrap;html=1;" vertex="1" parent="1">
          <mxGeometry x="390" y="500" width="90" height="65" as="geometry" />
        </mxCell>
        <mxCell id="yUk9mNaL82bYp9puLYHr-34" style="edgeStyle=orthogonalEdgeStyle;rounded=0;orthogonalLoop=1;jettySize=auto;html=1;entryX=1;entryY=0.5;entryDx=0;entryDy=0;endArrow=none;endFill=0;" edge="1" parent="1" source="yUk9mNaL82bYp9puLYHr-31" target="yUk9mNaL82bYp9puLYHr-22">
          <mxGeometry relative="1" as="geometry" />
        </mxCell>
        <mxCell id="yUk9mNaL82bYp9puLYHr-31" value="&lt;u&gt;Unique Identifier&lt;/u&gt;" style="ellipse;whiteSpace=wrap;html=1;" vertex="1" parent="1">
          <mxGeometry x="414" y="392.5" width="90" height="65" as="geometry" />
        </mxCell>
        <mxCell id="yUk9mNaL82bYp9puLYHr-36" style="edgeStyle=orthogonalEdgeStyle;rounded=0;orthogonalLoop=1;jettySize=auto;html=1;entryX=0.5;entryY=1;entryDx=0;entryDy=0;endArrow=none;endFill=0;" edge="1" parent="1" source="yUk9mNaL82bYp9puLYHr-32" target="yUk9mNaL82bYp9puLYHr-22">
          <mxGeometry relative="1" as="geometry" />
        </mxCell>
        <mxCell id="yUk9mNaL82bYp9puLYHr-32" value="Arrival Airport" style="ellipse;whiteSpace=wrap;html=1;" vertex="1" parent="1">
          <mxGeometry x="265" y="522.5" width="90" height="65" as="geometry" />
        </mxCell>
        <mxCell id="yUk9mNaL82bYp9puLYHr-40" style="rounded=0;orthogonalLoop=1;jettySize=auto;html=1;entryX=0.5;entryY=1;entryDx=0;entryDy=0;endArrow=none;endFill=0;" edge="1" parent="1" source="yUk9mNaL82bYp9puLYHr-39" target="yUk9mNaL82bYp9puLYHr-1">
          <mxGeometry relative="1" as="geometry" />
        </mxCell>
        <mxCell id="yUk9mNaL82bYp9puLYHr-41" style="rounded=0;orthogonalLoop=1;jettySize=auto;html=1;entryX=0.5;entryY=0;entryDx=0;entryDy=0;endArrow=none;endFill=0;" edge="1" parent="1" source="yUk9mNaL82bYp9puLYHr-39" target="yUk9mNaL82bYp9puLYHr-22">
          <mxGeometry relative="1" as="geometry" />
        </mxCell>
        <mxCell id="yUk9mNaL82bYp9puLYHr-39" value="Has" style="rhombus;whiteSpace=wrap;html=1;" vertex="1" parent="1">
          <mxGeometry x="275" y="280" width="65" height="70" as="geometry" />
        </mxCell>
        <mxCell id="yUk9mNaL82bYp9puLYHr-42" value="1" style="text;html=1;align=center;verticalAlign=middle;whiteSpace=wrap;rounded=0;" vertex="1" parent="1">
          <mxGeometry x="300" y="370" width="60" height="30" as="geometry" />
        </mxCell>
        <mxCell id="yUk9mNaL82bYp9puLYHr-43" value="n" style="text;html=1;align=center;verticalAlign=middle;whiteSpace=wrap;rounded=0;" vertex="1" parent="1">
          <mxGeometry x="295" y="230" width="60" height="30" as="geometry" />
        </mxCell>
        <mxCell id="yUk9mNaL82bYp9puLYHr-50" value="Discount Rate" style="ellipse;whiteSpace=wrap;html=1;dashed=1;dashPattern=12 12;" vertex="1" parent="1">
          <mxGeometry x="560" y="-50" width="90" height="65" as="geometry" />
        </mxCell>
        <mxCell id="yUk9mNaL82bYp9puLYHr-54" style="rounded=0;orthogonalLoop=1;jettySize=auto;html=1;entryX=0;entryY=0.5;entryDx=0;entryDy=0;endArrow=none;endFill=0;dashed=1;dashPattern=12 12;" edge="1" parent="1" source="yUk9mNaL82bYp9puLYHr-53" target="yUk9mNaL82bYp9puLYHr-11">
          <mxGeometry relative="1" as="geometry" />
        </mxCell>
        <mxCell id="yUk9mNaL82bYp9puLYHr-56" style="rounded=0;orthogonalLoop=1;jettySize=auto;html=1;entryX=0.5;entryY=1;entryDx=0;entryDy=0;endArrow=none;endFill=0;dashed=1;dashPattern=12 12;" edge="1" parent="1" source="yUk9mNaL82bYp9puLYHr-53" target="yUk9mNaL82bYp9puLYHr-55">
          <mxGeometry relative="1" as="geometry" />
        </mxCell>
        <mxCell id="yUk9mNaL82bYp9puLYHr-53" value="Has" style="shape=rhombus;double=1;perimeter=rhombusPerimeter;whiteSpace=wrap;html=1;align=center;" vertex="1" parent="1">
          <mxGeometry x="550" y="167.5" width="120" height="60" as="geometry" />
        </mxCell>
        <mxCell id="yUk9mNaL82bYp9puLYHr-57" style="rounded=0;orthogonalLoop=1;jettySize=auto;html=1;entryX=0.5;entryY=1;entryDx=0;entryDy=0;endArrow=none;endFill=0;" edge="1" parent="1" source="yUk9mNaL82bYp9puLYHr-55" target="yUk9mNaL82bYp9puLYHr-50">
          <mxGeometry relative="1" as="geometry" />
        </mxCell>
        <mxCell id="yUk9mNaL82bYp9puLYHr-55" value="Account" style="whiteSpace=wrap;html=1;align=center;" vertex="1" parent="1">
          <mxGeometry x="540" y="62.5" width="100" height="40" as="geometry" />
        </mxCell>
        <mxCell id="yUk9mNaL82bYp9puLYHr-59" style="rounded=0;orthogonalLoop=1;jettySize=auto;html=1;entryX=1;entryY=0.25;entryDx=0;entryDy=0;endArrow=none;endFill=0;" edge="1" parent="1" source="yUk9mNaL82bYp9puLYHr-58" target="yUk9mNaL82bYp9puLYHr-55">
          <mxGeometry relative="1" as="geometry" />
        </mxCell>
        <mxCell id="yUk9mNaL82bYp9puLYHr-58" value="Email Address" style="ellipse;whiteSpace=wrap;html=1;" vertex="1" parent="1">
          <mxGeometry x="690" y="-20" width="90" height="65" as="geometry" />
        </mxCell>
        <mxCell id="yUk9mNaL82bYp9puLYHr-60" value="1" style="text;html=1;align=center;verticalAlign=middle;whiteSpace=wrap;rounded=0;" vertex="1" parent="1">
          <mxGeometry x="690" y="185" width="60" height="30" as="geometry" />
        </mxCell>
        <mxCell id="yUk9mNaL82bYp9puLYHr-61" value="1" style="text;html=1;align=center;verticalAlign=middle;whiteSpace=wrap;rounded=0;" vertex="1" parent="1">
          <mxGeometry x="575" y="102.5" width="60" height="30" as="geometry" />
        </mxCell>
        <mxCell id="yUk9mNaL82bYp9puLYHr-63" style="rounded=0;orthogonalLoop=1;jettySize=auto;html=1;entryX=0;entryY=0.25;entryDx=0;entryDy=0;endArrow=none;endFill=0;" edge="1" parent="1" source="yUk9mNaL82bYp9puLYHr-62" target="yUk9mNaL82bYp9puLYHr-55">
          <mxGeometry relative="1" as="geometry" />
        </mxCell>
        <mxCell id="yUk9mNaL82bYp9puLYHr-62" value="Number of Booked Flights" style="ellipse;whiteSpace=wrap;html=1;" vertex="1" parent="1">
          <mxGeometry x="420" y="-20" width="90" height="65" as="geometry" />
        </mxCell>
        <mxCell id="yUk9mNaL82bYp9puLYHr-74" style="edgeStyle=orthogonalEdgeStyle;rounded=0;orthogonalLoop=1;jettySize=auto;html=1;entryX=0;entryY=0.5;entryDx=0;entryDy=0;endArrow=none;endFill=0;" edge="1" parent="1" source="yUk9mNaL82bYp9puLYHr-64" target="yUk9mNaL82bYp9puLYHr-73">
          <mxGeometry relative="1" as="geometry" />
        </mxCell>
        <mxCell id="yUk9mNaL82bYp9puLYHr-64" value="Seat" style="rounded=0;whiteSpace=wrap;html=1;" vertex="1" parent="1">
          <mxGeometry x="575" y="360" width="100" height="50" as="geometry" />
        </mxCell>
        <mxCell id="yUk9mNaL82bYp9puLYHr-66" style="rounded=0;orthogonalLoop=1;jettySize=auto;html=1;entryX=0.5;entryY=1;entryDx=0;entryDy=0;endArrow=none;endFill=0;" edge="1" parent="1" source="yUk9mNaL82bYp9puLYHr-65" target="yUk9mNaL82bYp9puLYHr-64">
          <mxGeometry relative="1" as="geometry" />
        </mxCell>
        <mxCell id="yUk9mNaL82bYp9puLYHr-65" value="Class" style="ellipse;whiteSpace=wrap;html=1;" vertex="1" parent="1">
          <mxGeometry x="565" y="460" width="90" height="65" as="geometry" />
        </mxCell>
        <mxCell id="yUk9mNaL82bYp9puLYHr-67" value="Books" style="shape=rhombus;double=1;perimeter=rhombusPerimeter;whiteSpace=wrap;html=1;align=center;" vertex="1" parent="1">
          <mxGeometry x="580" y="250" width="120" height="60" as="geometry" />
        </mxCell>
        <mxCell id="yUk9mNaL82bYp9puLYHr-68" value="" style="endArrow=none;dashed=1;html=1;rounded=0;exitX=0.5;exitY=0;exitDx=0;exitDy=0;entryX=0.5;entryY=1;entryDx=0;entryDy=0;dashPattern=12 12;" edge="1" parent="1" source="yUk9mNaL82bYp9puLYHr-64" target="yUk9mNaL82bYp9puLYHr-67">
          <mxGeometry width="50" height="50" relative="1" as="geometry">
            <mxPoint x="590" y="330" as="sourcePoint" />
            <mxPoint x="640" y="280" as="targetPoint" />
          </mxGeometry>
        </mxCell>
        <mxCell id="yUk9mNaL82bYp9puLYHr-69" value="" style="endArrow=none;dashed=1;html=1;rounded=0;exitX=1;exitY=0.5;exitDx=0;exitDy=0;entryX=0;entryY=1;entryDx=0;entryDy=0;dashPattern=12 12;" edge="1" parent="1" source="yUk9mNaL82bYp9puLYHr-67" target="yUk9mNaL82bYp9puLYHr-11">
          <mxGeometry width="50" height="50" relative="1" as="geometry">
            <mxPoint x="635" y="370" as="sourcePoint" />
            <mxPoint x="670" y="313" as="targetPoint" />
          </mxGeometry>
        </mxCell>
        <mxCell id="yUk9mNaL82bYp9puLYHr-70" value="1" style="text;html=1;align=center;verticalAlign=middle;whiteSpace=wrap;rounded=0;" vertex="1" parent="1">
          <mxGeometry x="710" y="242.5" width="60" height="30" as="geometry" />
        </mxCell>
        <mxCell id="yUk9mNaL82bYp9puLYHr-71" value="3" style="text;html=1;align=center;verticalAlign=middle;whiteSpace=wrap;rounded=0;" vertex="1" parent="1">
          <mxGeometry x="615" y="330" width="60" height="30" as="geometry" />
        </mxCell>
        <mxCell id="yUk9mNaL82bYp9puLYHr-82" style="rounded=0;orthogonalLoop=1;jettySize=auto;html=1;entryX=1;entryY=1;entryDx=0;entryDy=0;endArrow=none;endFill=0;" edge="1" parent="1" source="yUk9mNaL82bYp9puLYHr-72" target="yUk9mNaL82bYp9puLYHr-64">
          <mxGeometry relative="1" as="geometry" />
        </mxCell>
        <mxCell id="yUk9mNaL82bYp9puLYHr-72" value="Date" style="ellipse;whiteSpace=wrap;html=1;" vertex="1" parent="1">
          <mxGeometry x="675" y="457.5" width="90" height="65" as="geometry" />
        </mxCell>
        <mxCell id="yUk9mNaL82bYp9puLYHr-73" value="&lt;u&gt;Number&lt;/u&gt;" style="ellipse;whiteSpace=wrap;html=1;" vertex="1" parent="1">
          <mxGeometry x="737" y="352.5" width="90" height="65" as="geometry" />
        </mxCell>
        <mxCell id="yUk9mNaL82bYp9puLYHr-78" style="rounded=0;orthogonalLoop=1;jettySize=auto;html=1;entryX=1;entryY=0.5;entryDx=0;entryDy=0;endArrow=none;endFill=0;" edge="1" parent="1" source="yUk9mNaL82bYp9puLYHr-77" target="yUk9mNaL82bYp9puLYHr-1">
          <mxGeometry relative="1" as="geometry" />
        </mxCell>
        <mxCell id="yUk9mNaL82bYp9puLYHr-79" style="rounded=0;orthogonalLoop=1;jettySize=auto;html=1;entryX=0;entryY=0;entryDx=0;entryDy=0;endArrow=none;endFill=0;" edge="1" parent="1" source="yUk9mNaL82bYp9puLYHr-77" target="yUk9mNaL82bYp9puLYHr-64">
          <mxGeometry relative="1" as="geometry" />
        </mxCell>
        <mxCell id="yUk9mNaL82bYp9puLYHr-77" value="Has" style="rhombus;whiteSpace=wrap;html=1;" vertex="1" parent="1">
          <mxGeometry x="432.5" y="222.5" width="65" height="70" as="geometry" />
        </mxCell>
        <mxCell id="yUk9mNaL82bYp9puLYHr-80" value="1" style="text;html=1;align=center;verticalAlign=middle;whiteSpace=wrap;rounded=0;" vertex="1" parent="1">
          <mxGeometry x="340" y="180" width="60" height="30" as="geometry" />
        </mxCell>
        <mxCell id="yUk9mNaL82bYp9puLYHr-81" value="n" style="text;html=1;align=center;verticalAlign=middle;whiteSpace=wrap;rounded=0;" vertex="1" parent="1">
          <mxGeometry x="540" y="322.5" width="60" height="30" as="geometry" />
        </mxCell>
      </root>
    </mxGraphModel>
  </diagram>
</mxfile>
